<svg xmlns="http://www.w3.org/2000/svg" xmlns:xlink="http://www.w3.org/1999/xlink" width="500" zoomAndPan="magnify" viewBox="0 0 375 374.999991" height="500" preserveAspectRatio="xMidYMid meet" version="1.0"><defs><g/></defs><g fill="#f6f5ed" fill-opacity="1"><g transform="translate(23.443362, 216.749986)"><g><path d="M 18.4375 -51.765625 C 20.832031 -51.765625 22.65625 -51.488281 23.90625 -50.9375 C 25.15625 -50.382812 26.257812 -49.773438 27.21875 -49.109375 C 27.789062 -48.765625 28.253906 -48.507812 28.609375 -48.34375 C 28.972656 -48.175781 29.320312 -48.09375 29.65625 -48.09375 C 30.144531 -48.09375 30.492188 -48.359375 30.703125 -48.890625 C 30.921875 -49.421875 31.101562 -50.210938 31.25 -51.265625 L 32.90625 -51.265625 C 32.851562 -50.453125 32.789062 -49.476562 32.71875 -48.34375 C 32.644531 -47.21875 32.597656 -45.726562 32.578125 -43.875 C 32.554688 -42.03125 32.546875 -39.597656 32.546875 -36.578125 L 30.890625 -36.578125 C 30.742188 -38.878906 30.238281 -41.085938 29.375 -43.203125 C 28.507812 -45.316406 27.25 -47.046875 25.59375 -48.390625 C 23.9375 -49.734375 21.765625 -50.40625 19.078125 -50.40625 C 16.535156 -50.40625 14.4375 -49.632812 12.78125 -48.09375 C 11.125 -46.5625 10.296875 -44.546875 10.296875 -42.046875 C 10.296875 -39.890625 10.847656 -38.078125 11.953125 -36.609375 C 13.054688 -35.148438 14.53125 -33.832031 16.375 -32.65625 C 18.226562 -31.476562 20.234375 -30.21875 22.390625 -28.875 C 24.890625 -27.332031 27.109375 -25.804688 29.046875 -24.296875 C 30.992188 -22.785156 32.53125 -21.117188 33.65625 -19.296875 C 34.789062 -17.472656 35.359375 -15.265625 35.359375 -12.671875 C 35.359375 -9.597656 34.660156 -7.050781 33.265625 -5.03125 C 31.867188 -3.019531 30.019531 -1.507812 27.71875 -0.5 C 25.414062 0.507812 22.875 1.015625 20.09375 1.015625 C 17.539062 1.015625 15.519531 0.722656 14.03125 0.140625 C 12.550781 -0.429688 11.28125 -1.03125 10.21875 -1.65625 C 9.164062 -2.320312 8.351562 -2.65625 7.78125 -2.65625 C 7.300781 -2.65625 6.953125 -2.390625 6.734375 -1.859375 C 6.515625 -1.335938 6.332031 -0.550781 6.1875 0.5 L 4.53125 0.5 C 4.632812 -0.507812 4.695312 -1.695312 4.71875 -3.0625 C 4.738281 -4.425781 4.757812 -6.210938 4.78125 -8.421875 C 4.8125 -10.628906 4.828125 -13.414062 4.828125 -16.78125 L 6.484375 -16.78125 C 6.671875 -13.894531 7.207031 -11.203125 8.09375 -8.703125 C 8.988281 -6.210938 10.359375 -4.210938 12.203125 -2.703125 C 14.046875 -1.191406 16.503906 -0.4375 19.578125 -0.4375 C 21.160156 -0.4375 22.660156 -0.757812 24.078125 -1.40625 C 25.492188 -2.050781 26.65625 -3.082031 27.5625 -4.5 C 28.476562 -5.914062 28.9375 -7.753906 28.9375 -10.015625 C 28.9375 -11.972656 28.46875 -13.6875 27.53125 -15.15625 C 26.601562 -16.625 25.296875 -17.992188 23.609375 -19.265625 C 21.929688 -20.535156 19.96875 -21.84375 17.71875 -23.1875 C 15.457031 -24.570312 13.34375 -25.984375 11.375 -27.421875 C 9.40625 -28.867188 7.832031 -30.539062 6.65625 -32.4375 C 5.476562 -34.332031 4.890625 -36.625 4.890625 -39.3125 C 4.890625 -42.144531 5.523438 -44.484375 6.796875 -46.328125 C 8.078125 -48.179688 9.75 -49.550781 11.8125 -50.4375 C 13.875 -51.320312 16.082031 -51.765625 18.4375 -51.765625 Z M 18.4375 -51.765625 "/></g></g></g><g fill="#f6f5ed" fill-opacity="1"><g transform="translate(62.323346, 216.749986)"><g><path d="M 42.625 -50.96875 C 42.4375 -49.144531 42.304688 -47.378906 42.234375 -45.671875 C 42.160156 -43.972656 42.125 -42.671875 42.125 -41.765625 C 42.125 -40.609375 42.144531 -39.523438 42.1875 -38.515625 C 42.238281 -37.515625 42.289062 -36.628906 42.34375 -35.859375 L 40.6875 -35.859375 C 40.34375 -39.210938 39.882812 -41.863281 39.3125 -43.8125 C 38.738281 -45.757812 37.726562 -47.160156 36.28125 -48.015625 C 34.84375 -48.878906 32.613281 -49.3125 29.59375 -49.3125 L 25.703125 -49.3125 L 25.703125 -8.359375 C 25.703125 -6.429688 25.878906 -4.988281 26.234375 -4.03125 C 26.597656 -3.070312 27.304688 -2.421875 28.359375 -2.078125 C 29.421875 -1.742188 30.957031 -1.53125 32.96875 -1.4375 L 32.96875 0 C 31.726562 -0.09375 30.144531 -0.148438 28.21875 -0.171875 C 26.300781 -0.203125 24.359375 -0.21875 22.390625 -0.21875 C 20.234375 -0.21875 18.207031 -0.203125 16.3125 -0.171875 C 14.414062 -0.148438 12.890625 -0.09375 11.734375 0 L 11.734375 -1.4375 C 13.753906 -1.53125 15.289062 -1.742188 16.34375 -2.078125 C 17.394531 -2.421875 18.101562 -3.070312 18.46875 -4.03125 C 18.832031 -4.988281 19.015625 -6.429688 19.015625 -8.359375 L 19.015625 -49.3125 L 15.125 -49.3125 C 12.144531 -49.3125 9.921875 -48.878906 8.453125 -48.015625 C 6.992188 -47.160156 5.972656 -45.757812 5.390625 -43.8125 C 4.816406 -41.863281 4.363281 -39.210938 4.03125 -35.859375 L 2.375 -35.859375 C 2.46875 -36.628906 2.523438 -37.515625 2.546875 -38.515625 C 2.578125 -39.523438 2.59375 -40.609375 2.59375 -41.765625 C 2.59375 -42.671875 2.554688 -43.972656 2.484375 -45.671875 C 2.410156 -47.378906 2.28125 -49.144531 2.09375 -50.96875 C 4.101562 -50.925781 6.296875 -50.878906 8.671875 -50.828125 C 11.046875 -50.785156 13.429688 -50.765625 15.828125 -50.765625 C 18.234375 -50.765625 20.421875 -50.765625 22.390625 -50.765625 C 24.359375 -50.765625 26.53125 -50.765625 28.90625 -50.765625 C 31.28125 -50.765625 33.664062 -50.785156 36.0625 -50.828125 C 38.46875 -50.878906 40.65625 -50.925781 42.625 -50.96875 Z M 42.625 -50.96875 "/></g></g></g><g fill="#f6f5ed" fill-opacity="1"><g transform="translate(107.035318, 216.749986)"><g><path d="M 26.71875 -51.984375 C 31.269531 -51.984375 35.257812 -50.953125 38.6875 -48.890625 C 42.125 -46.828125 44.789062 -43.863281 46.6875 -40 C 48.582031 -36.132812 49.53125 -31.441406 49.53125 -25.921875 C 49.53125 -20.546875 48.554688 -15.84375 46.609375 -11.8125 C 44.671875 -7.78125 41.972656 -4.632812 38.515625 -2.375 C 35.066406 -0.113281 31.109375 1.015625 26.640625 1.015625 C 22.078125 1.015625 18.078125 -0.015625 14.640625 -2.078125 C 11.210938 -4.148438 8.550781 -7.128906 6.65625 -11.015625 C 4.757812 -14.898438 3.8125 -19.582031 3.8125 -25.0625 C 3.8125 -30.4375 4.796875 -35.140625 6.765625 -39.171875 C 8.734375 -43.203125 11.429688 -46.34375 14.859375 -48.59375 C 18.296875 -50.851562 22.25 -51.984375 26.71875 -51.984375 Z M 26.421875 -50.6875 C 23.304688 -50.6875 20.59375 -49.601562 18.28125 -47.4375 C 15.976562 -45.28125 14.191406 -42.304688 12.921875 -38.515625 C 11.648438 -34.722656 11.015625 -30.332031 11.015625 -25.34375 C 11.015625 -20.257812 11.722656 -15.832031 13.140625 -12.0625 C 14.554688 -8.289062 16.472656 -5.382812 18.890625 -3.34375 C 21.316406 -1.300781 23.992188 -0.28125 26.921875 -0.28125 C 30.046875 -0.28125 32.757812 -1.359375 35.0625 -3.515625 C 37.363281 -5.679688 39.148438 -8.671875 40.421875 -12.484375 C 41.703125 -16.304688 42.34375 -20.6875 42.34375 -25.625 C 42.34375 -30.769531 41.632812 -35.210938 40.21875 -38.953125 C 38.800781 -42.691406 36.890625 -45.582031 34.484375 -47.625 C 32.085938 -49.664062 29.398438 -50.6875 26.421875 -50.6875 Z M 26.421875 -50.6875 "/></g></g></g><g fill="#f6f5ed" fill-opacity="1"><g transform="translate(160.387293, 216.749986)"><g><path d="M 48.234375 -50.96875 L 48.234375 -49.53125 C 46.609375 -49.488281 45.375 -49.25 44.53125 -48.8125 C 43.6875 -48.382812 43.117188 -47.6875 42.828125 -46.71875 C 42.546875 -45.757812 42.40625 -44.394531 42.40625 -42.625 L 42.40625 0.359375 C 42.113281 0.359375 41.835938 0.359375 41.578125 0.359375 C 41.316406 0.359375 41.039062 0.359375 40.75 0.359375 L 10.515625 -46.375 L 10.515625 -8.359375 C 10.515625 -6.628906 10.671875 -5.269531 10.984375 -4.28125 C 11.296875 -3.300781 11.914062 -2.601562 12.84375 -2.1875 C 13.78125 -1.78125 15.1875 -1.53125 17.0625 -1.4375 L 17.0625 0 C 16.195312 -0.09375 15.066406 -0.148438 13.671875 -0.171875 C 12.285156 -0.203125 10.96875 -0.21875 9.71875 -0.21875 C 8.519531 -0.21875 7.304688 -0.203125 6.078125 -0.171875 C 4.859375 -0.148438 3.84375 -0.09375 3.03125 0 L 3.03125 -1.4375 C 4.65625 -1.53125 5.882812 -1.78125 6.71875 -2.1875 C 7.5625 -2.601562 8.128906 -3.300781 8.421875 -4.28125 C 8.710938 -5.269531 8.859375 -6.628906 8.859375 -8.359375 L 8.859375 -43.34375 C 8.859375 -45.125 8.710938 -46.429688 8.421875 -47.265625 C 8.128906 -48.109375 7.5625 -48.6875 6.71875 -49 C 5.882812 -49.3125 4.65625 -49.488281 3.03125 -49.53125 L 3.03125 -50.96875 C 3.84375 -50.925781 4.859375 -50.878906 6.078125 -50.828125 C 7.304688 -50.785156 8.519531 -50.765625 9.71875 -50.765625 C 10.769531 -50.765625 11.773438 -50.785156 12.734375 -50.828125 C 13.703125 -50.878906 14.570312 -50.925781 15.34375 -50.96875 L 40.75 -11.8125 L 40.75 -42.625 C 40.75 -44.394531 40.59375 -45.757812 40.28125 -46.71875 C 39.96875 -47.6875 39.34375 -48.382812 38.40625 -48.8125 C 37.476562 -49.25 36.078125 -49.488281 34.203125 -49.53125 L 34.203125 -50.96875 C 35.066406 -50.925781 36.207031 -50.878906 37.625 -50.828125 C 39.039062 -50.785156 40.347656 -50.765625 41.546875 -50.765625 C 42.796875 -50.765625 44.03125 -50.785156 45.25 -50.828125 C 46.476562 -50.878906 47.472656 -50.925781 48.234375 -50.96875 Z M 48.234375 -50.96875 "/></g></g></g><g fill="#f6f5ed" fill-opacity="1"><g transform="translate(211.219267, 216.749986)"><g><path d="M 48.234375 -50.96875 L 48.234375 -49.53125 C 46.609375 -49.488281 45.375 -49.25 44.53125 -48.8125 C 43.6875 -48.382812 43.117188 -47.6875 42.828125 -46.71875 C 42.546875 -45.757812 42.40625 -44.394531 42.40625 -42.625 L 42.40625 0.359375 C 42.113281 0.359375 41.835938 0.359375 41.578125 0.359375 C 41.316406 0.359375 41.039062 0.359375 40.75 0.359375 L 10.515625 -46.375 L 10.515625 -8.359375 C 10.515625 -6.628906 10.671875 -5.269531 10.984375 -4.28125 C 11.296875 -3.300781 11.914062 -2.601562 12.84375 -2.1875 C 13.78125 -1.78125 15.1875 -1.53125 17.0625 -1.4375 L 17.0625 0 C 16.195312 -0.09375 15.066406 -0.148438 13.671875 -0.171875 C 12.285156 -0.203125 10.96875 -0.21875 9.71875 -0.21875 C 8.519531 -0.21875 7.304688 -0.203125 6.078125 -0.171875 C 4.859375 -0.148438 3.84375 -0.09375 3.03125 0 L 3.03125 -1.4375 C 4.65625 -1.53125 5.882812 -1.78125 6.71875 -2.1875 C 7.5625 -2.601562 8.128906 -3.300781 8.421875 -4.28125 C 8.710938 -5.269531 8.859375 -6.628906 8.859375 -8.359375 L 8.859375 -43.34375 C 8.859375 -45.125 8.710938 -46.429688 8.421875 -47.265625 C 8.128906 -48.109375 7.5625 -48.6875 6.71875 -49 C 5.882812 -49.3125 4.65625 -49.488281 3.03125 -49.53125 L 3.03125 -50.96875 C 3.84375 -50.925781 4.859375 -50.878906 6.078125 -50.828125 C 7.304688 -50.785156 8.519531 -50.765625 9.71875 -50.765625 C 10.769531 -50.765625 11.773438 -50.785156 12.734375 -50.828125 C 13.703125 -50.878906 14.570312 -50.925781 15.34375 -50.96875 L 40.75 -11.8125 L 40.75 -42.625 C 40.75 -44.394531 40.59375 -45.757812 40.28125 -46.71875 C 39.96875 -47.6875 39.34375 -48.382812 38.40625 -48.8125 C 37.476562 -49.25 36.078125 -49.488281 34.203125 -49.53125 L 34.203125 -50.96875 C 35.066406 -50.925781 36.207031 -50.878906 37.625 -50.828125 C 39.039062 -50.785156 40.347656 -50.765625 41.546875 -50.765625 C 42.796875 -50.765625 44.03125 -50.785156 45.25 -50.828125 C 46.476562 -50.878906 47.472656 -50.925781 48.234375 -50.96875 Z M 48.234375 -50.96875 "/></g></g></g><g fill="#f6f5ed" fill-opacity="1"><g transform="translate(262.051241, 216.749986)"><g><path d="M 38.953125 -50.96875 C 38.753906 -49.289062 38.617188 -47.660156 38.546875 -46.078125 C 38.484375 -44.492188 38.453125 -43.296875 38.453125 -42.484375 C 38.453125 -41.617188 38.472656 -40.789062 38.515625 -40 C 38.566406 -39.207031 38.613281 -38.546875 38.65625 -38.015625 L 37.015625 -38.015625 C 36.722656 -40.847656 36.3125 -43.09375 35.78125 -44.75 C 35.25 -46.40625 34.347656 -47.578125 33.078125 -48.265625 C 31.804688 -48.960938 29.898438 -49.3125 27.359375 -49.3125 L 21.390625 -49.3125 C 19.753906 -49.3125 18.515625 -49.179688 17.671875 -48.921875 C 16.835938 -48.660156 16.273438 -48.109375 15.984375 -47.265625 C 15.691406 -46.429688 15.546875 -45.125 15.546875 -43.34375 L 15.546875 -7.625 C 15.546875 -5.90625 15.691406 -4.613281 15.984375 -3.75 C 16.273438 -2.882812 16.835938 -2.316406 17.671875 -2.046875 C 18.515625 -1.785156 19.753906 -1.65625 21.390625 -1.65625 L 26.640625 -1.65625 C 29.660156 -1.65625 31.953125 -2.0625 33.515625 -2.875 C 35.078125 -3.695312 36.203125 -5.03125 36.890625 -6.875 C 37.585938 -8.71875 38.109375 -11.226562 38.453125 -14.40625 L 40.109375 -14.40625 C 39.960938 -13.101562 39.890625 -11.375 39.890625 -9.21875 C 39.890625 -8.300781 39.925781 -6.988281 40 -5.28125 C 40.070312 -3.582031 40.203125 -1.820312 40.390625 0 C 37.941406 -0.09375 35.179688 -0.148438 32.109375 -0.171875 C 29.035156 -0.203125 26.300781 -0.21875 23.90625 -0.21875 C 22.84375 -0.21875 21.484375 -0.21875 19.828125 -0.21875 C 18.179688 -0.21875 16.394531 -0.203125 14.46875 -0.171875 C 12.550781 -0.148438 10.609375 -0.128906 8.640625 -0.109375 C 6.671875 -0.0859375 4.800781 -0.0507812 3.03125 0 L 3.03125 -1.4375 C 4.65625 -1.53125 5.882812 -1.722656 6.71875 -2.015625 C 7.5625 -2.304688 8.128906 -2.882812 8.421875 -3.75 C 8.710938 -4.613281 8.859375 -5.90625 8.859375 -7.625 L 8.859375 -43.34375 C 8.859375 -45.125 8.710938 -46.429688 8.421875 -47.265625 C 8.128906 -48.109375 7.5625 -48.6875 6.71875 -49 C 5.882812 -49.3125 4.65625 -49.488281 3.03125 -49.53125 L 3.03125 -50.96875 C 4.800781 -50.925781 6.671875 -50.890625 8.640625 -50.859375 C 10.609375 -50.835938 12.550781 -50.816406 14.46875 -50.796875 C 16.394531 -50.773438 18.179688 -50.765625 19.828125 -50.765625 C 21.484375 -50.765625 22.84375 -50.765625 23.90625 -50.765625 C 26.113281 -50.765625 28.617188 -50.773438 31.421875 -50.796875 C 34.234375 -50.816406 36.742188 -50.875 38.953125 -50.96875 Z M 26.5625 -26.359375 C 26.5625 -26.359375 26.5625 -26.113281 26.5625 -25.625 C 26.5625 -25.144531 26.5625 -24.90625 26.5625 -24.90625 L 13.390625 -24.90625 C 13.390625 -24.90625 13.390625 -25.144531 13.390625 -25.625 C 13.390625 -26.113281 13.390625 -26.359375 13.390625 -26.359375 Z M 28.65625 -35.859375 C 28.46875 -33.117188 28.382812 -31.03125 28.40625 -29.59375 C 28.425781 -28.15625 28.4375 -26.832031 28.4375 -25.625 C 28.4375 -24.425781 28.457031 -23.109375 28.5 -21.671875 C 28.550781 -20.234375 28.675781 -18.144531 28.875 -15.40625 L 27.21875 -15.40625 C 27.019531 -16.945312 26.789062 -18.445312 26.53125 -19.90625 C 26.269531 -21.375 25.691406 -22.570312 24.796875 -23.5 C 23.910156 -24.4375 22.410156 -24.90625 20.296875 -24.90625 L 20.296875 -26.359375 C 21.890625 -26.359375 23.101562 -26.679688 23.9375 -27.328125 C 24.78125 -27.972656 25.394531 -28.796875 25.78125 -29.796875 C 26.164062 -30.804688 26.425781 -31.851562 26.5625 -32.9375 C 26.707031 -34.019531 26.851562 -34.992188 27 -35.859375 Z M 28.65625 -35.859375 "/></g></g></g><g fill="#f6f5ed" fill-opacity="1"><g transform="translate(305.89923, 216.749986)"><g><path d="M 17.5625 -50.96875 L 17.5625 -49.46875 C 15.164062 -49.46875 13.703125 -49.210938 13.171875 -48.703125 C 12.648438 -48.203125 12.722656 -47.398438 13.390625 -46.296875 L 40.3125 -5.109375 C 41.226562 -3.722656 42 -2.800781 42.625 -2.34375 C 43.25 -1.882812 44.085938 -1.609375 45.140625 -1.515625 L 45.140625 0 C 44.515625 -0.0507812 43.640625 -0.109375 42.515625 -0.171875 C 41.390625 -0.242188 40.203125 -0.28125 38.953125 -0.28125 C 37.035156 -0.28125 35.101562 -0.242188 33.15625 -0.171875 C 31.207031 -0.109375 29.753906 -0.0507812 28.796875 0 L 28.796875 -1.515625 C 31.203125 -1.515625 32.738281 -1.65625 33.40625 -1.9375 C 34.082031 -2.226562 34.082031 -2.898438 33.40625 -3.953125 L 6.046875 -45.859375 C 5.140625 -47.253906 4.382812 -48.191406 3.78125 -48.671875 C 3.175781 -49.148438 2.320312 -49.414062 1.21875 -49.46875 L 1.21875 -50.96875 C 1.84375 -50.925781 2.726562 -50.867188 3.875 -50.796875 C 5.03125 -50.722656 6.210938 -50.6875 7.421875 -50.6875 C 9.390625 -50.6875 11.234375 -50.722656 12.953125 -50.796875 C 14.679688 -50.867188 16.21875 -50.925781 17.5625 -50.96875 Z M 21.53125 -26.28125 C 21.53125 -26.28125 21.578125 -26.125 21.671875 -25.8125 C 21.765625 -25.5 21.867188 -25.1875 21.984375 -24.875 C 22.109375 -24.5625 22.171875 -24.40625 22.171875 -24.40625 L 13.3125 -11.234375 C 11.59375 -8.640625 10.695312 -6.644531 10.625 -5.25 C 10.550781 -3.863281 11.085938 -2.894531 12.234375 -2.34375 C 13.390625 -1.789062 14.972656 -1.488281 16.984375 -1.4375 L 16.984375 0 C 16.316406 -0.0507812 15.550781 -0.0859375 14.6875 -0.109375 C 13.820312 -0.128906 12.945312 -0.148438 12.0625 -0.171875 C 11.175781 -0.203125 10.3125 -0.21875 9.46875 -0.21875 C 8.625 -0.21875 7.890625 -0.21875 7.265625 -0.21875 C 6.066406 -0.21875 4.925781 -0.203125 3.84375 -0.171875 C 2.769531 -0.148438 1.875 -0.09375 1.15625 0 L 1.15625 -1.4375 C 2.644531 -1.675781 4.035156 -2.347656 5.328125 -3.453125 C 6.617188 -4.554688 7.9375 -6.09375 9.28125 -8.0625 Z M 43.625 -50.96875 L 43.625 -49.53125 C 42.144531 -49.34375 40.753906 -48.679688 39.453125 -47.546875 C 38.160156 -46.421875 36.84375 -44.875 35.5 -42.90625 L 23.90625 -25.625 C 23.90625 -25.625 23.832031 -25.9375 23.6875 -26.5625 C 23.539062 -27.1875 23.46875 -27.5 23.46875 -27.5 L 31.6875 -39.75 C 33.40625 -42.332031 34.410156 -44.320312 34.703125 -45.71875 C 34.992188 -47.113281 34.65625 -48.085938 33.6875 -48.640625 C 32.726562 -49.191406 31.242188 -49.488281 29.234375 -49.53125 L 29.234375 -50.96875 C 30.140625 -50.925781 31.070312 -50.890625 32.03125 -50.859375 C 33 -50.835938 33.945312 -50.816406 34.875 -50.796875 C 35.8125 -50.773438 36.691406 -50.765625 37.515625 -50.765625 C 38.765625 -50.765625 39.914062 -50.785156 40.96875 -50.828125 C 42.019531 -50.878906 42.90625 -50.925781 43.625 -50.96875 Z M 43.625 -50.96875 "/></g></g></g></svg>